<?xml version="1.0" encoding="UTF-8" standalone="no"?>
<svg
   xmlns:dc="http://purl.org/dc/elements/1.1/"
   xmlns:cc="http://creativecommons.org/ns#"
   xmlns:rdf="http://www.w3.org/1999/02/22-rdf-syntax-ns#"
   xmlns:svg="http://www.w3.org/2000/svg"
   xmlns="http://www.w3.org/2000/svg"
   xmlns:sodipodi="http://sodipodi.sourceforge.net/DTD/sodipodi-0.dtd"
   xmlns:inkscape="http://www.inkscape.org/namespaces/inkscape"
   inkscape:export-ydpi="96"
   inkscape:export-xdpi="96"
   inkscape:export-filename="C:\Users\bmcka\OneDrive\Documents\RandomStuff\Account.png"
   width="128.13484mm"
   height="128.13484mm"
   viewBox="0 0 128.13486 128.13486"
   version="1.1"
   id="svg8"
   inkscape:version="1.0 (4035a4fb49, 2020-05-01)"
   sodipodi:docname="account.svg">
  <defs
     id="defs2" />
  <sodipodi:namedview
     fit-margin-bottom="0"
     fit-margin-right="0"
     fit-margin-left="0"
     fit-margin-top="0"
     id="base"
     pagecolor="#ffffff"
     bordercolor="#666666"
     borderopacity="1.0"
     inkscape:pageopacity="0.0"
     inkscape:pageshadow="2"
     inkscape:zoom="0.58799296"
     inkscape:cx="321.72672"
     inkscape:cy="181.51953"
     inkscape:document-units="mm"
     inkscape:current-layer="layer1"
     inkscape:document-rotation="0"
     showgrid="false"
     inkscape:window-width="1920"
     inkscape:window-height="986"
     inkscape:window-x="-11"
     inkscape:window-y="-11"
     inkscape:window-maximized="1" />
  <metadata
     id="metadata5">
    <rdf:RDF>
      <cc:Work
         rdf:about="">
        <dc:format>image/svg+xml</dc:format>
        <dc:type
           rdf:resource="http://purl.org/dc/dcmitype/StillImage" />
        <dc:title></dc:title>
      </cc:Work>
    </rdf:RDF>
  </metadata>
  <g
     transform="translate(-12.596359,-12.205139)"
     inkscape:label="Layer 1"
     inkscape:groupmode="layer"
     id="layer1">
    <path
       transform="matrix(0.26458333,0,0,0.26458333,13.496321,13.105101)"
       d="m 430.36914,367.09961 a 232.95592,173.06011 0 0 0 -0.27344,-0.29492 232.95592,173.06011 0 0 0 -0.7832,-0.83399 232.95592,173.06011 0 0 0 -0.79102,-0.82812 232.95592,173.06011 0 0 0 -0.79492,-0.82617 232.95592,173.06011 0 0 0 -0.80273,-0.82227 232.95592,173.06011 0 0 0 -0.81055,-0.81836 232.95592,173.06011 0 0 0 -0.81445,-0.8164 232.95592,173.06011 0 0 0 -0.82227,-0.8125 232.95592,173.06011 0 0 0 -0.83008,-0.80665 232.95592,173.06011 0 0 0 -0.83398,-0.80468 232.95592,173.06011 0 0 0 -0.8418,-0.80078 232.95592,173.06011 0 0 0 -0.84765,-0.79688 232.95592,173.06011 0 0 0 -0.85352,-0.79492 232.95592,173.06011 0 0 0 -0.85937,-0.78906 232.95592,173.06011 0 0 0 -0.86719,-0.78516 232.95592,173.06011 0 0 0 -0.87305,-0.7832 232.95592,173.06011 0 0 0 -0.8789,-0.77735 232.95592,173.06011 0 0 0 -0.88477,-0.77539 232.95592,173.06011 0 0 0 -0.89063,-0.77148 232.95592,173.06011 0 0 0 -0.89648,-0.76563 232.95592,173.06011 0 0 0 -0.9043,-0.76367 232.95592,173.06011 0 0 0 -0.9082,-0.75781 232.95592,173.06011 0 0 0 -0.91602,-0.75586 232.95592,173.06011 0 0 0 -0.91992,-0.75 232.95592,173.06011 0 0 0 -0.92773,-0.74805 232.95592,173.06011 0 0 0 -0.93164,-0.74219 232.95592,173.06011 0 0 0 -0.93945,-0.73828 232.95592,173.06011 0 0 0 -0.94532,-0.73437 232.95592,173.06011 0 0 0 -0.94922,-0.73047 232.95592,173.06011 0 0 0 -0.95703,-0.72656 232.95592,173.06011 0 0 0 -0.96093,-0.72266 232.95592,173.06011 0 0 0 -0.96876,-0.71875 232.95592,173.06011 0 0 0 -0.97265,-0.71289 232.95592,173.06011 0 0 0 -0.97852,-0.70898 232.95592,173.06011 0 0 0 -0.98437,-0.70508 232.95592,173.06011 0 0 0 -0.99024,-0.70117 232.95592,173.06011 0 0 0 -0.99414,-0.69727 232.95592,173.06011 0 0 0 -1.00195,-0.69141 232.95592,173.06011 0 0 0 -1.00586,-0.6875 232.95592,173.06011 0 0 0 -1.01172,-0.68359 232.95592,173.06011 0 0 0 -1.01758,-0.67969 232.95592,173.06011 0 0 0 -1.02343,-0.67383 232.95592,173.06011 0 0 0 -1.02735,-0.66992 232.95592,173.06011 0 0 0 -1.0332,-0.66601 232.95592,173.06011 0 0 0 -1.03711,-0.66211 232.95592,173.06011 0 0 0 -1.04492,-0.65625 232.95592,173.06011 0 0 0 -1.04883,-0.65039 232.95592,173.06011 0 0 0 -1.05273,-0.64844 232.95592,173.06011 0 0 0 -1.0586,-0.64258 232.95592,173.06011 0 0 0 -1.06445,-0.63867 232.95592,173.06011 0 0 0 -1.06836,-0.63281 232.95592,173.06011 0 0 0 -1.07422,-0.62891 232.95592,173.06011 0 0 0 -1.08008,-0.625 232.95592,173.06011 0 0 0 -1.08398,-0.61914 232.95592,173.06011 0 0 0 -1.08789,-0.61328 232.95592,173.06011 0 0 0 -1.09375,-0.61133 232.95592,173.06011 0 0 0 -1.09961,-0.60547 232.95592,173.06011 0 0 0 -1.10156,-0.59961 232.95592,173.06011 0 0 0 -1.10938,-0.5957 232.95592,173.06011 0 0 0 -1.11133,-0.58984 232.95592,173.06011 0 0 0 -1.11719,-0.58594 232.95592,173.06011 0 0 0 -1.12304,-0.58203 232.95592,173.06011 0 0 0 -1.125,-0.57422 232.95592,173.06011 0 0 0 -1.13086,-0.57227 232.95592,173.06011 0 0 0 -1.13672,-0.5664 232.95592,173.06011 0 0 0 -1.13867,-0.56055 232.95592,173.06011 0 0 0 -1.14453,-0.55664 232.95592,173.06011 0 0 0 -1.14844,-0.55078 232.95592,173.06011 0 0 0 -1.1543,-0.54688 232.95592,173.06011 0 0 0 -1.15625,-0.54101 232.95592,173.06011 0 0 0 -1.16211,-0.53516 232.95592,173.06011 0 0 0 -1.16601,-0.53125 232.95592,173.06011 0 0 0 -1.16992,-0.52539 232.95592,173.06011 0 0 0 -1.17383,-0.52148 232.95592,173.06011 0 0 0 -1.17774,-0.51563 232.95592,173.06011 0 0 0 -1.18359,-0.51172 232.95592,173.06011 0 0 0 -1.18555,-0.5039 232.95592,173.06011 0 0 0 -1.18945,-0.5 232.95592,173.06011 0 0 0 -1.19531,-0.4961 232.95592,173.06011 0 0 0 -1.19727,-0.49023 232.95592,173.06011 0 0 0 -1.20117,-0.48438 232.95592,173.06011 0 0 0 -1.20703,-0.47851 232.95592,173.06011 0 0 0 -1.20899,-0.47461 232.95592,173.06011 0 0 0 -1.21289,-0.46875 232.95592,173.06011 0 0 0 -1.21679,-0.46289 232.95592,173.06011 0 0 0 -1.22071,-0.45899 232.95592,173.06011 0 0 0 -1.22461,-0.45312 232.95592,173.06011 0 0 0 -1.22656,-0.44727 232.95592,173.06011 0 0 0 -1.23242,-0.4414 232.95592,173.06011 0 0 0 -1.23438,-0.4375 232.95592,173.06011 0 0 0 -1.23828,-0.42969 232.95592,173.06011 0 0 0 -1.24218,-0.42774 232.95592,173.06011 0 0 0 -1.24414,-0.41992 232.95592,173.06011 0 0 0 -1.24805,-0.41406 232.95592,173.06011 0 0 0 -1.25195,-0.41016 232.95592,173.06011 0 0 0 -1.25391,-0.40429 232.95592,173.06011 0 0 0 -1.25781,-0.39844 232.95592,173.06011 0 0 0 -1.26172,-0.39258 232.95592,173.06011 0 0 0 -1.26367,-0.38867 232.95592,173.06011 0 0 0 -1.26563,-0.38281 232.95592,173.06011 0 0 0 -1.27148,-0.375 232.95592,173.06011 0 0 0 -1.27149,-0.3711 232.95592,173.06011 0 0 0 -1.27734,-0.36718 232.95592,173.06011 0 0 0 -1.27735,-0.35938 232.95592,173.06011 0 0 0 -1.2832,-0.35352 232.95592,173.06011 0 0 0 -1.2832,-0.3496 232.95592,173.06011 0 0 0 -1.28711,-0.34375 232.95592,173.06011 0 0 0 -1.29102,-0.33594 232.95592,173.06011 0 0 0 -1.29101,-0.33203 232.95592,173.06011 0 0 0 -1.29492,-0.32618 232.95592,173.06011 0 0 0 -1.29883,-0.32226 232.95592,173.06011 0 0 0 -1.29883,-0.31445 232.95592,173.06011 0 0 0 -1.30274,-0.3086 232.95592,173.06011 0 0 0 -1.30468,-0.30469 232.95592,173.06011 0 0 0 -1.3086,-0.29687 232.95592,173.06011 0 0 0 -1.30859,-0.29297 232.95592,173.06011 0 0 0 -1.3125,-0.28711 232.95592,173.06011 0 0 0 -1.31445,-0.27929 232.95592,173.06011 0 0 0 -1.31641,-0.2754 232.95592,173.06011 0 0 0 -1.31836,-0.26953 232.95592,173.06011 0 0 0 -1.32031,-0.26367 232.95592,173.06011 0 0 0 -1.32422,-0.25781 232.95592,173.06011 0 0 0 -1.32422,-0.25195 232.95592,173.06011 0 0 0 -1.32617,-0.2461 232.95592,173.06011 0 0 0 -1.32813,-0.24023 232.95592,173.06011 0 0 0 -1.33203,-0.23438 232.95592,173.06011 0 0 0 -1.33203,-0.22851 232.95592,173.06011 0 0 0 -1.33398,-0.22266 232.95592,173.06011 0 0 0 -1.33594,-0.21875 232.95592,173.06011 0 0 0 -1.33789,-0.21094 232.95592,173.06011 0 0 0 -1.33789,-0.20507 232.95592,173.06011 0 0 0 -1.3418,-0.19922 232.95592,173.06011 0 0 0 -1.3418,-0.19532 232.95592,173.06011 0 0 0 -1.34374,-0.1875 232.95592,173.06011 0 0 0 -1.34571,-0.18164 232.95592,173.06011 0 0 0 -1.3457,-0.17578 232.95592,173.06011 0 0 0 -1.34961,-0.16992 232.95592,173.06011 0 0 0 -1.34961,-0.16602 232.95592,173.06011 0 0 0 -1.34961,-0.1582 232.95592,173.06011 0 0 0 -1.35156,-0.15234 232.95592,173.06011 0 0 0 -1.35352,-0.14649 232.95592,173.06011 0 0 0 -1.35547,-0.14062 232.95592,173.06011 0 0 0 -1.35351,-0.13477 232.95592,173.06011 0 0 0 -1.35742,-0.13086 232.95592,173.06011 0 0 0 -1.35743,-0.12304 232.95592,173.06011 0 0 0 -1.35742,-0.11719 232.95592,173.06011 0 0 0 -1.35937,-0.11133 232.95592,173.06011 0 0 0 -1.36133,-0.10547 232.95592,173.06011 0 0 0 -1.36133,-0.0976 232.95592,173.06011 0 0 0 -1.36133,-0.0937 232.95592,173.06011 0 0 0 -1.36133,-0.0879 232.95592,173.06011 0 0 0 -1.36328,-0.082 232.95592,173.06011 0 0 0 -1.36328,-0.0762 232.95592,173.06011 0 0 0 -1.36523,-0.0684 232.95592,173.06011 0 0 0 -1.36524,-0.0645 232.95592,173.06011 0 0 0 -1.36523,-0.0586 232.95592,173.06011 0 0 0 -1.36524,-0.0508 232.95592,173.06011 0 0 0 -1.36523,-0.0469 232.95592,173.06011 0 0 0 -1.36719,-0.0391 232.95592,173.06011 0 0 0 -1.36718,-0.0352 232.95592,173.06011 0 0 0 -1.36719,-0.0273 232.95592,173.06011 0 0 0 -1.36719,-0.0215 232.95592,173.06011 0 0 0 -1.36719,-0.0176 232.95592,173.06011 0 0 0 -1.36718,-0.01 232.95592,173.06011 0 0 0 -1.36719,-0.004 232.95592,173.06011 0 0 0 -0.27344,0 232.95592,173.06011 0 0 0 -0.20508,0 232.95592,173.06011 0 0 0 -1.36718,0.004 232.95592,173.06011 0 0 0 -1.36719,0.01 232.95592,173.06011 0 0 0 -1.36719,0.0156 232.95592,173.06011 0 0 0 -1.36719,0.0215 232.95592,173.06011 0 0 0 -1.36719,0.0293 232.95592,173.06011 0 0 0 -1.36718,0.0332 232.95592,173.06011 0 0 0 -1.36524,0.0391 232.95592,173.06011 0 0 0 -1.36718,0.0449 232.95592,173.06011 0 0 0 -1.36524,0.0527 232.95592,173.06011 0 0 0 -1.36523,0.0566 232.95592,173.06011 0 0 0 -1.36524,0.0645 232.95592,173.06011 0 0 0 -1.36328,0.0684 232.95592,173.06011 0 0 0 -1.36328,0.0762 232.95592,173.06011 0 0 0 -1.36328,0.0801 232.95592,173.06011 0 0 0 -1.36328,0.0879 232.95592,173.06011 0 0 0 -1.36133,0.0937 232.95592,173.06011 0 0 0 -1.36133,0.0996 232.95592,173.06011 0 0 0 -1.35937,0.10351 232.95592,173.06011 0 0 0 -1.35938,0.11133 232.95592,173.06011 0 0 0 -1.35937,0.11719 232.95592,173.06011 0 0 0 -1.35743,0.12304 232.95592,173.06011 0 0 0 -1.35546,0.12891 232.95592,173.06011 0 0 0 -1.35547,0.13477 232.95592,173.06011 0 0 0 -1.35547,0.14062 232.95592,173.06011 0 0 0 -1.35156,0.14648 232.95592,173.06011 0 0 0 -1.35352,0.15235 232.95592,173.06011 0 0 0 -1.34961,0.1582 232.95592,173.06011 0 0 0 -1.34961,0.16406 232.95592,173.06011 0 0 0 -1.34961,0.16993 232.95592,173.06011 0 0 0 -1.3457,0.17578 232.95592,173.06011 0 0 0 -1.3457,0.18164 232.95592,173.06011 0 0 0 -1.34375,0.1875 232.95592,173.06011 0 0 0 -1.3418,0.19336 232.95592,173.06011 0 0 0 -1.3418,0.19922 232.95592,173.06011 0 0 0 -1.33984,0.20507 232.95592,173.06011 0 0 0 -1.33789,0.21094 232.95592,173.06011 0 0 0 -1.33594,0.21875 232.95592,173.06011 0 0 0 -1.33398,0.22266 232.95592,173.06011 0 0 0 -1.33204,0.22851 232.95592,173.06011 0 0 0 -1.33007,0.23438 232.95592,173.06011 0 0 0 -1.32813,0.23828 232.95592,173.06011 0 0 0 -1.32812,0.24609 232.95592,173.06011 0 0 0 -1.32422,0.25196 232.95592,173.06011 0 0 0 -1.32227,0.25781 232.95592,173.06011 0 0 0 -1.32226,0.26367 232.95592,173.06011 0 0 0 -1.31836,0.26953 232.95592,173.06011 0 0 0 -1.31641,0.27344 232.95592,173.06011 0 0 0 -1.31445,0.28125 232.95592,173.06011 0 0 0 -1.3125,0.28516 232.95592,173.06011 0 0 0 -1.3086,0.29296 232.95592,173.06011 0 0 0 -1.30859,0.29688 232.95592,173.06011 0 0 0 -1.30469,0.30273 232.95592,173.06011 0 0 0 -1.30273,0.31055 232.95592,173.06011 0 0 0 -1.30078,0.31445 232.95592,173.06011 0 0 0 -1.29688,0.32032 232.95592,173.06011 0 0 0 -1.29492,0.32617 232.95592,173.06011 0 0 0 -1.29297,0.33008 232.95592,173.06011 0 0 0 -1.28906,0.33789 232.95592,173.06011 0 0 0 -1.28711,0.34375 232.95592,173.06011 0 0 0 -1.28516,0.34765 232.95592,173.06011 0 0 0 -1.28125,0.35352 232.95592,173.06011 0 0 0 -1.27929,0.36133 232.95592,173.06011 0 0 0 -1.27539,0.36523 232.95592,173.06011 0 0 0 -1.27344,0.36914 232.95592,173.06011 0 0 0 -1.27149,0.37696 232.95592,173.06011 0 0 0 -1.26562,0.38281 232.95592,173.06011 0 0 0 -1.26563,0.38672 232.95592,173.06011 0 0 0 -1.25976,0.39258 232.95592,173.06011 0 0 0 -1.25781,0.39843 232.95592,173.06011 0 0 0 -1.25586,0.4043 232.95592,173.06011 0 0 0 -1.25196,0.4082 232.95592,173.06011 0 0 0 -1.24804,0.41602 232.95592,173.06011 0 0 0 -1.24414,0.41992 232.95592,173.06011 0 0 0 -1.24219,0.42578 232.95592,173.06011 0 0 0 -1.23828,0.43164 232.95592,173.06011 0 0 0 -1.23438,0.43555 232.95592,173.06011 0 0 0 -1.23242,0.4414 232.95592,173.06011 0 0 0 -1.22656,0.44727 232.95592,173.06011 0 0 0 -1.22461,0.45313 232.95592,173.06011 0 0 0 -1.22071,0.45703 232.95592,173.06011 0 0 0 -1.21679,0.46289 232.95592,173.06011 0 0 0 -1.21485,0.46875 232.95592,173.06011 0 0 0 -1.20898,0.47461 232.95592,173.06011 0 0 0 -1.20508,0.47851 232.95592,173.06011 0 0 0 -1.20312,0.48438 232.95592,173.06011 0 0 0 -1.19727,0.49023 232.95592,173.06011 0 0 0 -1.19531,0.49414 232.95592,173.06011 0 0 0 -1.18945,0.5 232.95592,173.06011 0 0 0 -1.1875,0.50586 232.95592,173.06011 0 0 0 -1.18165,0.50977 232.95592,173.06011 0 0 0 -1.17968,0.51562 232.95592,173.06011 0 0 0 -1.17383,0.51953 232.95592,173.06011 0 0 0 -1.16992,0.52539 232.95592,173.06011 0 0 0 -1.16602,0.53125 232.95592,173.06011 0 0 0 -1.16211,0.53711 232.95592,173.06011 0 0 0 -1.15625,0.53907 232.95592,173.06011 0 0 0 -1.15429,0.54687 232.95592,173.06011 0 0 0 -1.14844,0.55078 232.95592,173.06011 0 0 0 -1.14453,0.55664 232.95592,173.06011 0 0 0 -1.14063,0.56055 232.95592,173.06011 0 0 0 -1.13476,0.56641 232.95592,173.06011 0 0 0 -1.13282,0.57031 232.95592,173.06011 0 0 0 -1.125,0.57617 232.95592,173.06011 0 0 0 -1.12304,0.58008 232.95592,173.06011 0 0 0 -1.11719,0.58594 232.95592,173.06011 0 0 0 -1.11328,0.58984 232.95592,173.06011 0 0 0 -1.10742,0.5957 232.95592,173.06011 0 0 0 -1.10352,0.59961 232.95592,173.06011 0 0 0 -1.099609,0.60547 232.95592,173.06011 0 0 0 -1.09375,0.60938 232.95592,173.06011 0 0 0 -1.08789,0.61523 232.95592,173.06011 0 0 0 -1.083985,0.61914 232.95592,173.06011 0 0 0 -1.080078,0.62305 232.95592,173.06011 0 0 0 -1.074219,0.6289 A 232.95592,173.06011 0 0 0 93,330.49805 a 232.95592,173.06011 0 0 0 -1.064453,0.63867 232.95592,173.06011 0 0 0 -1.060547,0.64258 232.95592,173.06011 0 0 0 -1.052734,0.64648 232.95592,173.06011 0 0 0 -1.048828,0.65234 232.95592,173.06011 0 0 0 -1.044922,0.65626 232.95592,173.06011 0 0 0 -1.039063,0.66015 232.95592,173.06011 0 0 0 -1.033203,0.66602 232.95592,173.06011 0 0 0 -1.027344,0.66992 232.95592,173.06011 0 0 0 -1.023437,0.67383 232.95592,173.06011 0 0 0 -1.017578,0.67773 232.95592,173.06011 0 0 0 -1.011719,0.68359 232.95592,173.06011 0 0 0 -1.00586,0.6875 232.95592,173.06011 0 0 0 -1.001953,0.69141 232.95592,173.06011 0 0 0 -0.996093,0.69727 232.95592,173.06011 0 0 0 -0.990235,0.70117 232.95592,173.06011 0 0 0 -0.984375,0.70508 232.95592,173.06011 0 0 0 -0.978515,0.70898 232.95592,173.06011 0 0 0 -0.97461,0.71289 232.95592,173.06011 0 0 0 -0.966797,0.71875 232.95592,173.06011 0 0 0 -0.96289,0.72071 232.95592,173.06011 0 0 0 -0.955078,0.72656 232.95592,173.06011 0 0 0 -0.951172,0.73047 232.95592,173.06011 0 0 0 -0.945313,0.73437 232.95592,173.06011 0 0 0 -0.939453,0.73828 232.95592,173.06011 0 0 0 -0.93164,0.74219 232.95592,173.06011 0 0 0 -0.927735,0.74609 232.95592,173.06011 0 0 0 -0.921875,0.75196 232.95592,173.06011 0 0 0 -0.916016,0.7539 232.95592,173.06011 0 0 0 -0.908203,0.75977 232.95592,173.06011 0 0 0 -0.904297,0.76172 232.95592,173.06011 0 0 0 -0.896484,0.76758 232.95592,173.06011 0 0 0 -0.892578,0.76953 232.95592,173.06011 0 0 0 -0.884766,0.77343 232.95592,173.06011 0 0 0 -0.878906,0.7793 232.95592,173.06011 0 0 0 -0.873047,0.78125 232.95592,173.06011 0 0 0 -0.867187,0.78711 232.95592,173.06011 0 0 0 -0.859375,0.78906 232.95592,173.06011 0 0 0 -0.855469,0.79297 232.95592,173.06011 0 0 0 -0.847656,0.79688 232.95592,173.06011 0 0 0 -0.841797,0.80078 232.95592,173.06011 0 0 0 -0.833985,0.80469 232.95592,173.06011 0 0 0 -0.830078,0.80664 232.95592,173.06011 0 0 0 -0.822265,0.8125 232.95592,173.06011 0 0 0 -0.816407,0.81445 232.95592,173.06011 0 0 0 -0.808593,0.82031 232.95592,173.06011 0 0 0 -0.804688,0.82227 232.95592,173.06011 0 0 0 -0.794922,0.82422 232.95592,173.06011 0 0 0 -0.791015,0.83007 232.95592,173.06011 0 0 0 -0.783203,0.83204 232.95592,173.06011 0 0 0 -0.314453,0.33789 230.64164,230.64164 0 0 0 191.626952,102.28711 230.64164,230.64164 0 0 0 191.625,-102.28516 z"
       style="fill:#808080;fill-rule:evenodd;stroke:#808080;stroke-width:23.006;stroke-miterlimit:4;stroke-dasharray:none"
       id="path10" />
    <path
       transform="matrix(0.26458333,0,0,0.26458333,13.496321,13.105101)"
       d="M 238.74414,8.1015625 A 230.64164,230.64164 0 0 0 8.1015625,238.74414 230.64164,230.64164 0 0 0 47.117188,367.09766 a 232.95592,173.06011 0 0 1 0.314453,-0.33789 232.95592,173.06011 0 0 1 0.783203,-0.83204 232.95592,173.06011 0 0 1 0.791015,-0.83007 232.95592,173.06011 0 0 1 0.794922,-0.82422 232.95592,173.06011 0 0 1 0.804688,-0.82227 232.95592,173.06011 0 0 1 0.808593,-0.82031 232.95592,173.06011 0 0 1 0.816407,-0.81445 232.95592,173.06011 0 0 1 0.822265,-0.8125 232.95592,173.06011 0 0 1 0.830078,-0.80664 232.95592,173.06011 0 0 1 0.833985,-0.80469 232.95592,173.06011 0 0 1 0.841797,-0.80078 232.95592,173.06011 0 0 1 0.847656,-0.79688 232.95592,173.06011 0 0 1 0.855469,-0.79297 232.95592,173.06011 0 0 1 0.859375,-0.78906 232.95592,173.06011 0 0 1 0.867187,-0.78711 232.95592,173.06011 0 0 1 0.873047,-0.78125 232.95592,173.06011 0 0 1 0.878906,-0.7793 232.95592,173.06011 0 0 1 0.884766,-0.77343 232.95592,173.06011 0 0 1 0.892578,-0.76953 232.95592,173.06011 0 0 1 0.896484,-0.76758 232.95592,173.06011 0 0 1 0.904297,-0.76172 232.95592,173.06011 0 0 1 0.908203,-0.75977 232.95592,173.06011 0 0 1 0.916016,-0.7539 232.95592,173.06011 0 0 1 0.921875,-0.75196 232.95592,173.06011 0 0 1 0.927735,-0.74609 232.95592,173.06011 0 0 1 0.93164,-0.74219 232.95592,173.06011 0 0 1 0.939453,-0.73828 232.95592,173.06011 0 0 1 0.945313,-0.73437 232.95592,173.06011 0 0 1 0.951172,-0.73047 232.95592,173.06011 0 0 1 0.955078,-0.72656 232.95592,173.06011 0 0 1 0.96289,-0.72071 232.95592,173.06011 0 0 1 0.966797,-0.71875 232.95592,173.06011 0 0 1 0.97461,-0.71289 232.95592,173.06011 0 0 1 0.978515,-0.70898 232.95592,173.06011 0 0 1 0.984375,-0.70508 232.95592,173.06011 0 0 1 0.990235,-0.70117 232.95592,173.06011 0 0 1 0.996093,-0.69727 232.95592,173.06011 0 0 1 1.001953,-0.69141 232.95592,173.06011 0 0 1 1.00586,-0.6875 232.95592,173.06011 0 0 1 1.011719,-0.68359 232.95592,173.06011 0 0 1 1.017578,-0.67773 232.95592,173.06011 0 0 1 1.023437,-0.67383 232.95592,173.06011 0 0 1 1.027344,-0.66992 232.95592,173.06011 0 0 1 1.033203,-0.66602 232.95592,173.06011 0 0 1 1.039063,-0.66015 232.95592,173.06011 0 0 1 1.044922,-0.65626 232.95592,173.06011 0 0 1 1.048828,-0.65234 A 232.95592,173.06011 0 0 1 90.875,331.7793 232.95592,173.06011 0 0 1 91.935547,331.13672 232.95592,173.06011 0 0 1 93,330.49805 a 232.95592,173.06011 0 0 1 1.068359,-0.63282 232.95592,173.06011 0 0 1 1.074219,-0.6289 232.95592,173.06011 0 0 1 1.080078,-0.62305 232.95592,173.06011 0 0 1 1.083985,-0.61914 232.95592,173.06011 0 0 1 1.08789,-0.61523 232.95592,173.06011 0 0 1 1.09375,-0.60938 232.95592,173.06011 0 0 1 1.099609,-0.60547 232.95592,173.06011 0 0 1 1.10352,-0.59961 232.95592,173.06011 0 0 1 1.10742,-0.5957 232.95592,173.06011 0 0 1 1.11328,-0.58984 232.95592,173.06011 0 0 1 1.11719,-0.58594 232.95592,173.06011 0 0 1 1.12304,-0.58008 232.95592,173.06011 0 0 1 1.125,-0.57617 232.95592,173.06011 0 0 1 1.13282,-0.57031 232.95592,173.06011 0 0 1 1.13476,-0.56641 232.95592,173.06011 0 0 1 1.14063,-0.56055 232.95592,173.06011 0 0 1 1.14453,-0.55664 232.95592,173.06011 0 0 1 1.14844,-0.55078 232.95592,173.06011 0 0 1 1.15429,-0.54687 232.95592,173.06011 0 0 1 1.15625,-0.53907 232.95592,173.06011 0 0 1 1.16211,-0.53711 232.95592,173.06011 0 0 1 1.16602,-0.53125 232.95592,173.06011 0 0 1 1.16992,-0.52539 232.95592,173.06011 0 0 1 1.17383,-0.51953 232.95592,173.06011 0 0 1 1.17968,-0.51562 232.95592,173.06011 0 0 1 1.18165,-0.50977 232.95592,173.06011 0 0 1 1.1875,-0.50586 232.95592,173.06011 0 0 1 1.18945,-0.5 232.95592,173.06011 0 0 1 1.19531,-0.49414 232.95592,173.06011 0 0 1 1.19727,-0.49023 232.95592,173.06011 0 0 1 1.20312,-0.48438 232.95592,173.06011 0 0 1 1.20508,-0.47851 232.95592,173.06011 0 0 1 1.20898,-0.47461 232.95592,173.06011 0 0 1 1.21485,-0.46875 232.95592,173.06011 0 0 1 1.21679,-0.46289 232.95592,173.06011 0 0 1 1.22071,-0.45703 232.95592,173.06011 0 0 1 1.22461,-0.45313 232.95592,173.06011 0 0 1 1.22656,-0.44727 232.95592,173.06011 0 0 1 1.23242,-0.4414 232.95592,173.06011 0 0 1 1.23438,-0.43555 232.95592,173.06011 0 0 1 1.23828,-0.43164 232.95592,173.06011 0 0 1 1.24219,-0.42578 232.95592,173.06011 0 0 1 1.24414,-0.41992 232.95592,173.06011 0 0 1 1.24804,-0.41602 232.95592,173.06011 0 0 1 1.25196,-0.4082 232.95592,173.06011 0 0 1 1.25586,-0.4043 232.95592,173.06011 0 0 1 1.25781,-0.39843 232.95592,173.06011 0 0 1 1.25976,-0.39258 232.95592,173.06011 0 0 1 1.26563,-0.38672 232.95592,173.06011 0 0 1 1.26562,-0.38281 232.95592,173.06011 0 0 1 1.27149,-0.37696 232.95592,173.06011 0 0 1 1.27344,-0.36914 232.95592,173.06011 0 0 1 1.27539,-0.36523 232.95592,173.06011 0 0 1 1.27929,-0.36133 232.95592,173.06011 0 0 1 1.28125,-0.35352 232.95592,173.06011 0 0 1 1.28516,-0.34765 232.95592,173.06011 0 0 1 1.28711,-0.34375 232.95592,173.06011 0 0 1 1.28906,-0.33789 232.95592,173.06011 0 0 1 1.29297,-0.33008 232.95592,173.06011 0 0 1 1.29492,-0.32617 232.95592,173.06011 0 0 1 1.29688,-0.32032 232.95592,173.06011 0 0 1 1.30078,-0.31445 232.95592,173.06011 0 0 1 1.30273,-0.31055 232.95592,173.06011 0 0 1 1.30469,-0.30273 232.95592,173.06011 0 0 1 1.30859,-0.29688 232.95592,173.06011 0 0 1 1.3086,-0.29296 232.95592,173.06011 0 0 1 1.3125,-0.28516 232.95592,173.06011 0 0 1 1.31445,-0.28125 232.95592,173.06011 0 0 1 1.31641,-0.27344 232.95592,173.06011 0 0 1 1.31836,-0.26953 232.95592,173.06011 0 0 1 1.32226,-0.26367 232.95592,173.06011 0 0 1 1.32227,-0.25781 232.95592,173.06011 0 0 1 1.32422,-0.25196 232.95592,173.06011 0 0 1 1.32812,-0.24609 232.95592,173.06011 0 0 1 1.32813,-0.23828 232.95592,173.06011 0 0 1 1.33007,-0.23438 232.95592,173.06011 0 0 1 1.33204,-0.22851 232.95592,173.06011 0 0 1 1.33398,-0.22266 232.95592,173.06011 0 0 1 1.33594,-0.21875 232.95592,173.06011 0 0 1 1.33789,-0.21094 232.95592,173.06011 0 0 1 1.33984,-0.20507 232.95592,173.06011 0 0 1 1.3418,-0.19922 232.95592,173.06011 0 0 1 1.3418,-0.19336 232.95592,173.06011 0 0 1 1.34375,-0.1875 232.95592,173.06011 0 0 1 1.3457,-0.18164 232.95592,173.06011 0 0 1 1.3457,-0.17578 232.95592,173.06011 0 0 1 1.34961,-0.16993 232.95592,173.06011 0 0 1 1.34961,-0.16406 232.95592,173.06011 0 0 1 1.34961,-0.1582 232.95592,173.06011 0 0 1 1.35352,-0.15235 232.95592,173.06011 0 0 1 1.35156,-0.14648 232.95592,173.06011 0 0 1 1.35547,-0.14062 232.95592,173.06011 0 0 1 1.35547,-0.13477 232.95592,173.06011 0 0 1 1.35546,-0.12891 232.95592,173.06011 0 0 1 1.35743,-0.12304 232.95592,173.06011 0 0 1 1.35937,-0.11719 232.95592,173.06011 0 0 1 1.35938,-0.11133 232.95592,173.06011 0 0 1 1.35937,-0.10351 232.95592,173.06011 0 0 1 1.36133,-0.0996 232.95592,173.06011 0 0 1 1.36133,-0.0937 232.95592,173.06011 0 0 1 1.36328,-0.0879 232.95592,173.06011 0 0 1 1.36328,-0.0801 232.95592,173.06011 0 0 1 1.36328,-0.0762 232.95592,173.06011 0 0 1 1.36328,-0.0684 232.95592,173.06011 0 0 1 1.36524,-0.0645 232.95592,173.06011 0 0 1 1.36523,-0.0566 232.95592,173.06011 0 0 1 1.36524,-0.0527 232.95592,173.06011 0 0 1 1.36718,-0.0449 232.95592,173.06011 0 0 1 1.36524,-0.0391 232.95592,173.06011 0 0 1 1.36718,-0.0332 232.95592,173.06011 0 0 1 1.36719,-0.0293 232.95592,173.06011 0 0 1 1.36719,-0.0215 232.95592,173.06011 0 0 1 1.36719,-0.0156 232.95592,173.06011 0 0 1 1.36719,-0.01 232.95592,173.06011 0 0 1 1.36718,-0.004 232.95592,173.06011 0 0 1 0.20508,0 232.95592,173.06011 0 0 1 0.27344,0 232.95592,173.06011 0 0 1 1.36719,0.004 232.95592,173.06011 0 0 1 1.36718,0.01 232.95592,173.06011 0 0 1 1.36719,0.0176 232.95592,173.06011 0 0 1 1.36719,0.0215 232.95592,173.06011 0 0 1 1.36719,0.0273 232.95592,173.06011 0 0 1 1.36718,0.0352 232.95592,173.06011 0 0 1 1.36719,0.0391 232.95592,173.06011 0 0 1 1.36523,0.0469 232.95592,173.06011 0 0 1 1.36524,0.0508 232.95592,173.06011 0 0 1 1.36523,0.0586 232.95592,173.06011 0 0 1 1.36524,0.0645 232.95592,173.06011 0 0 1 1.36523,0.0684 232.95592,173.06011 0 0 1 1.36328,0.0762 232.95592,173.06011 0 0 1 1.36328,0.082 232.95592,173.06011 0 0 1 1.36133,0.0879 232.95592,173.06011 0 0 1 1.36133,0.0937 232.95592,173.06011 0 0 1 1.36133,0.0976 232.95592,173.06011 0 0 1 1.36133,0.10547 232.95592,173.06011 0 0 1 1.35937,0.11133 232.95592,173.06011 0 0 1 1.35742,0.11719 232.95592,173.06011 0 0 1 1.35743,0.12304 232.95592,173.06011 0 0 1 1.35742,0.13086 232.95592,173.06011 0 0 1 1.35351,0.13477 232.95592,173.06011 0 0 1 1.35547,0.14062 232.95592,173.06011 0 0 1 1.35352,0.14649 232.95592,173.06011 0 0 1 1.35156,0.15234 232.95592,173.06011 0 0 1 1.34961,0.1582 232.95592,173.06011 0 0 1 1.34961,0.16602 232.95592,173.06011 0 0 1 1.34961,0.16992 232.95592,173.06011 0 0 1 1.3457,0.17578 232.95592,173.06011 0 0 1 1.34571,0.18164 232.95592,173.06011 0 0 1 1.34374,0.1875 232.95592,173.06011 0 0 1 1.3418,0.19532 232.95592,173.06011 0 0 1 1.3418,0.19922 232.95592,173.06011 0 0 1 1.33789,0.20507 232.95592,173.06011 0 0 1 1.33789,0.21094 232.95592,173.06011 0 0 1 1.33594,0.21875 232.95592,173.06011 0 0 1 1.33398,0.22266 232.95592,173.06011 0 0 1 1.33203,0.22851 232.95592,173.06011 0 0 1 1.33203,0.23438 232.95592,173.06011 0 0 1 1.32813,0.24023 232.95592,173.06011 0 0 1 1.32617,0.2461 232.95592,173.06011 0 0 1 1.32422,0.25195 232.95592,173.06011 0 0 1 1.32422,0.25781 232.95592,173.06011 0 0 1 1.32031,0.26367 232.95592,173.06011 0 0 1 1.31836,0.26953 232.95592,173.06011 0 0 1 1.31641,0.2754 232.95592,173.06011 0 0 1 1.31445,0.27929 232.95592,173.06011 0 0 1 1.3125,0.28711 232.95592,173.06011 0 0 1 1.30859,0.29297 232.95592,173.06011 0 0 1 1.3086,0.29687 232.95592,173.06011 0 0 1 1.30468,0.30469 232.95592,173.06011 0 0 1 1.30274,0.3086 232.95592,173.06011 0 0 1 1.29883,0.31445 232.95592,173.06011 0 0 1 1.29883,0.32226 232.95592,173.06011 0 0 1 1.29492,0.32618 232.95592,173.06011 0 0 1 1.29101,0.33203 232.95592,173.06011 0 0 1 1.29102,0.33594 232.95592,173.06011 0 0 1 1.28711,0.34375 232.95592,173.06011 0 0 1 1.2832,0.3496 232.95592,173.06011 0 0 1 1.2832,0.35352 232.95592,173.06011 0 0 1 1.27735,0.35938 232.95592,173.06011 0 0 1 1.27734,0.36718 232.95592,173.06011 0 0 1 1.27149,0.3711 232.95592,173.06011 0 0 1 1.27148,0.375 232.95592,173.06011 0 0 1 1.26563,0.38281 232.95592,173.06011 0 0 1 1.26367,0.38867 232.95592,173.06011 0 0 1 1.26172,0.39258 232.95592,173.06011 0 0 1 1.25781,0.39844 232.95592,173.06011 0 0 1 1.25391,0.40429 232.95592,173.06011 0 0 1 1.25195,0.41016 232.95592,173.06011 0 0 1 1.24805,0.41406 232.95592,173.06011 0 0 1 1.24414,0.41992 232.95592,173.06011 0 0 1 1.24218,0.42774 232.95592,173.06011 0 0 1 1.23828,0.42969 232.95592,173.06011 0 0 1 1.23438,0.4375 232.95592,173.06011 0 0 1 1.23242,0.4414 232.95592,173.06011 0 0 1 1.22656,0.44727 232.95592,173.06011 0 0 1 1.22461,0.45312 232.95592,173.06011 0 0 1 1.22071,0.45899 232.95592,173.06011 0 0 1 1.21679,0.46289 232.95592,173.06011 0 0 1 1.21289,0.46875 232.95592,173.06011 0 0 1 1.20899,0.47461 232.95592,173.06011 0 0 1 1.20703,0.47851 232.95592,173.06011 0 0 1 1.20117,0.48438 232.95592,173.06011 0 0 1 1.19727,0.49023 232.95592,173.06011 0 0 1 1.19531,0.4961 232.95592,173.06011 0 0 1 1.18945,0.5 232.95592,173.06011 0 0 1 1.18555,0.5039 232.95592,173.06011 0 0 1 1.18359,0.51172 232.95592,173.06011 0 0 1 1.17774,0.51563 232.95592,173.06011 0 0 1 1.17383,0.52148 232.95592,173.06011 0 0 1 1.16992,0.52539 232.95592,173.06011 0 0 1 1.16601,0.53125 232.95592,173.06011 0 0 1 1.16211,0.53516 232.95592,173.06011 0 0 1 1.15625,0.54101 232.95592,173.06011 0 0 1 1.1543,0.54688 232.95592,173.06011 0 0 1 1.14844,0.55078 232.95592,173.06011 0 0 1 1.14453,0.55664 232.95592,173.06011 0 0 1 1.13867,0.56055 232.95592,173.06011 0 0 1 1.13672,0.5664 232.95592,173.06011 0 0 1 1.13086,0.57227 232.95592,173.06011 0 0 1 1.125,0.57422 232.95592,173.06011 0 0 1 1.12304,0.58203 232.95592,173.06011 0 0 1 1.11719,0.58594 232.95592,173.06011 0 0 1 1.11133,0.58984 232.95592,173.06011 0 0 1 1.10938,0.5957 232.95592,173.06011 0 0 1 1.10156,0.59961 232.95592,173.06011 0 0 1 1.09961,0.60547 232.95592,173.06011 0 0 1 1.09375,0.61133 232.95592,173.06011 0 0 1 1.08789,0.61328 232.95592,173.06011 0 0 1 1.08398,0.61914 232.95592,173.06011 0 0 1 1.08008,0.625 232.95592,173.06011 0 0 1 1.07422,0.62891 232.95592,173.06011 0 0 1 1.06836,0.63281 232.95592,173.06011 0 0 1 1.06445,0.63867 232.95592,173.06011 0 0 1 1.0586,0.64258 232.95592,173.06011 0 0 1 1.05273,0.64844 232.95592,173.06011 0 0 1 1.04883,0.65039 232.95592,173.06011 0 0 1 1.04492,0.65625 232.95592,173.06011 0 0 1 1.03711,0.66211 232.95592,173.06011 0 0 1 1.0332,0.66601 232.95592,173.06011 0 0 1 1.02735,0.66992 232.95592,173.06011 0 0 1 1.02343,0.67383 232.95592,173.06011 0 0 1 1.01758,0.67969 232.95592,173.06011 0 0 1 1.01172,0.68359 232.95592,173.06011 0 0 1 1.00586,0.6875 232.95592,173.06011 0 0 1 1.00195,0.69141 232.95592,173.06011 0 0 1 0.99414,0.69727 232.95592,173.06011 0 0 1 0.99024,0.70117 232.95592,173.06011 0 0 1 0.98437,0.70508 232.95592,173.06011 0 0 1 0.97852,0.70898 232.95592,173.06011 0 0 1 0.97265,0.71289 232.95592,173.06011 0 0 1 0.96876,0.71875 232.95592,173.06011 0 0 1 0.96093,0.72266 232.95592,173.06011 0 0 1 0.95703,0.72656 232.95592,173.06011 0 0 1 0.94922,0.73047 232.95592,173.06011 0 0 1 0.94532,0.73437 232.95592,173.06011 0 0 1 0.93945,0.73828 232.95592,173.06011 0 0 1 0.93164,0.74219 232.95592,173.06011 0 0 1 0.92773,0.74805 232.95592,173.06011 0 0 1 0.91992,0.75 232.95592,173.06011 0 0 1 0.91602,0.75586 232.95592,173.06011 0 0 1 0.9082,0.75781 232.95592,173.06011 0 0 1 0.9043,0.76367 232.95592,173.06011 0 0 1 0.89648,0.76563 232.95592,173.06011 0 0 1 0.89063,0.77148 232.95592,173.06011 0 0 1 0.88477,0.77539 232.95592,173.06011 0 0 1 0.8789,0.77735 232.95592,173.06011 0 0 1 0.87305,0.7832 232.95592,173.06011 0 0 1 0.86719,0.78516 232.95592,173.06011 0 0 1 0.85937,0.78906 232.95592,173.06011 0 0 1 0.85352,0.79492 232.95592,173.06011 0 0 1 0.84765,0.79688 232.95592,173.06011 0 0 1 0.8418,0.80078 232.95592,173.06011 0 0 1 0.83398,0.80468 232.95592,173.06011 0 0 1 0.83008,0.80665 232.95592,173.06011 0 0 1 0.82227,0.8125 232.95592,173.06011 0 0 1 0.81445,0.8164 232.95592,173.06011 0 0 1 0.81055,0.81836 232.95592,173.06011 0 0 1 0.80273,0.82227 232.95592,173.06011 0 0 1 0.79492,0.82617 232.95592,173.06011 0 0 1 0.79102,0.82812 232.95592,173.06011 0 0 1 0.7832,0.83399 232.95592,173.06011 0 0 1 0.27344,0.29492 A 230.64164,230.64164 0 0 0 469.38477,238.74414 230.64164,230.64164 0 0 0 238.74414,8.1015625 Z"
       style="fill:none;fill-rule:evenodd;stroke:#808080;stroke-width:23.006;stroke-miterlimit:4;stroke-dasharray:none"
       id="path896" />
    <circle
       r="24.873693"
       style="fill:#808080;stroke:none;stroke-width:1.56852;stroke-miterlimit:4;stroke-dasharray:none"
       id="path835"
       cx="76.66391"
       cy="56.416183" />
    <circle
       cy="294.06546"
       cx="115.66071"
       id="path837-7"
       style="fill:#cccccc;stroke:none;stroke-width:3.99858;stroke-miterlimit:4;stroke-dasharray:none"
       r="0" />
    <circle
       cy="363.61307"
       cx="92.98214"
       id="path837-75"
       style="fill:#cccccc;stroke:none;stroke-width:3.99858;stroke-miterlimit:4;stroke-dasharray:none"
       r="0" />
  </g>
</svg>
