<?xml version="1.0" encoding="UTF-8" standalone="no"?>
<svg
   xmlns:dc="http://purl.org/dc/elements/1.1/"
   xmlns:cc="http://creativecommons.org/ns#"
   xmlns:rdf="http://www.w3.org/1999/02/22-rdf-syntax-ns#"
   xmlns:svg="http://www.w3.org/2000/svg"
   xmlns="http://www.w3.org/2000/svg"
   xmlns:sodipodi="http://sodipodi.sourceforge.net/DTD/sodipodi-0.dtd"
   xmlns:inkscape="http://www.inkscape.org/namespaces/inkscape"
   height="1499.9993"
   width="1257.1171"
   version="1.1"
   id="Layer_1"
   x="0px"
   y="0px"
   viewBox="0 0 1257.1171 1499.9993"
   xml:space="preserve"
   sodipodi:docname="favicon.svg"
   inkscape:export-filename="C:\Users\bmcka\OneDrive\Documents\RandomStuff\static\favicon.png"
   inkscape:export-xdpi="300"
   inkscape:export-ydpi="300"
   inkscape:version="1.0 (4035a4fb49, 2020-05-01)"><metadata
   id="metadata853"><rdf:RDF><cc:Work
       rdf:about=""><dc:format>image/svg+xml</dc:format><dc:type
         rdf:resource="http://purl.org/dc/dcmitype/StillImage" /><dc:title></dc:title></cc:Work></rdf:RDF></metadata><defs
   id="defs851"><inkscape:path-effect
     update_on_knot_move="true"
     attempt_force_join="true"
     miter_limit="4"
     offset="15"
     unit="mm"
     linejoin_type="miter"
     lpeversion="1"
     is_visible="true"
     id="path-effect866"
     effect="offset" /></defs><sodipodi:namedview
   fit-margin-bottom="0"
   fit-margin-right="0"
   fit-margin-left="0"
   fit-margin-top="0"
   inkscape:document-rotation="0"
   pagecolor="#ffffff"
   bordercolor="#666666"
   borderopacity="1"
   objecttolerance="10"
   gridtolerance="10"
   guidetolerance="10"
   inkscape:pageopacity="0"
   inkscape:pageshadow="2"
   inkscape:window-width="1920"
   inkscape:window-height="986"
   id="namedview849"
   showgrid="false"
   inkscape:zoom="0.22"
   inkscape:cx="2904.8459"
   inkscape:cy="789.36893"
   inkscape:window-x="-11"
   inkscape:window-y="-11"
   inkscape:window-maximized="1"
   inkscape:current-layer="Layer_1" />
<style
   type="text/css"
   id="style844">
	.st0{fill:#C2881F;}
</style>

<path
   style="fill:#c2881f"
   id="path846-3"
   d="m 1153.2986,918.19497 c -181.70002,-466 -532.50002,-969.4 -657.50002,-913.9999962 -103.9,46.1000002 27.4,433.6999962 -103,931.4999962 -19.1,73.00003 -47,160.80003 -105.2,256.40003 -127.9,210.3 -298.000004,287 -287.10000386,304.6 13.49999986,21.8 295.10000386,-62.7 471.20000386,-300.3 56.9,-76.8 89.9,-152.2 112.6,-212.20003 130.1,1.7 267.4,-71.9 344.9,-165.10002 21.9,60.59997 39.9,126.60002 51,195.30005 35.70002,221.4 -14.2,385.9 78.90002,438.3 45.6,25.7 114,17.2 153.4,-17.5 103.9,-91.3 1.9,-360.3 -59.2,-517.00003 z M 632.79858,831.59492 c 50.4,-205.09995 20.5,-329.99995 62.5,-340.79995 38.7,-9.9 121.3,81.3 189.6,222.8 -41.7,67.9 -150.6,119.19995 -252.1,117.99995 z"
   class="st0" /></svg>
